# xmcd
#
# Track frame offsets:
#	150
#	13098
#	29561
#	43106
#	63645
#	81405
#	95721
#	108976
#	128986
#	146743
#	161105
#	182343
#	197445
#	212925
#
# Disc length: 3069 seconds
#
# Revision: 0
# Processed by: cddbd v1.5.2PL0 Copyright (c) Steve Scherf et al.
# Submitted via: EasyCDDAExtractor 16.0.6.1
#
DISCID=d00bfb0e
DTITLE=Γιώργος Μαργαρίτης - Ένας Αιώνας τραγούδι Cd2
DYEAR=2012
DGENRE=Λαϊκά
TTITLE0=Βρέχει φωτιά στη στράτα μου (Γιώργος Μαργαρίτης)
TTITLE1=Αφιλότιμη (Γιώργος Μαργαρίτης)
TTITLE2=Το αγριολούλουδο (Γιώργος Μαργαρίτης)
TTITLE3=Σκληρός χωρισμός (Γιώργος Μαργαρίτης)
TTITLE4=Δραπετσώνα (Γιώργος Μαργαρίτης)
TTITLE5=Μάτια βουρκομένα (Γιώργος Μαργαρίτης)
TTITLE6=Παλιομισοφόρια (Γιώργος Μαργαρίτης)
TTITLE7=Τα παιδιά της άμυνας (Γιώργος Μαργαρίτης)
TTITLE8=Βράχο βράχο τον καημό μου (Γιώργος Μαργαρίτης)
TTITLE9=Το τελευταίο βράδυ μου (Τώρα που φεύγω απ΄τη ζωή)(Γιώργος Μαργαρίτης)
TTITLE10=Αυτή η νύχτα μένει (Γιώργος Μαργαρίτης)
TTITLE11=Πέντε Έλληνες στον Άδη (Γιώργος Μαργαρίτης)
TTITLE12=Έφυγες και που μ΄αφήνεις (Γιώργος Μαργαρίτης)
TTITLE13=Ότι αρχίζει ωραίο (Γιώργος Μαργαρίτης)
EXTD=
EXTT0=
EXTT1=
EXTT2=
EXTT3=
EXTT4=
EXTT5=
EXTT6=
EXTT7=
EXTT8=
EXTT9=
EXTT10=
EXTT11=
EXTT12=
EXTT13=
PLAYORDER=
